<?xml version="1.0" encoding="UTF-8" standalone="no"?>
<!-- Created with Inkscape (http://www.inkscape.org/) -->

<svg
   xmlns:dc="http://purl.org/dc/elements/1.1/"
   xmlns:cc="http://creativecommons.org/ns#"
   xmlns:rdf="http://www.w3.org/1999/02/22-rdf-syntax-ns#"
   xmlns:svg="http://www.w3.org/2000/svg"
   xmlns="http://www.w3.org/2000/svg"
   xmlns:sodipodi="http://sodipodi.sourceforge.net/DTD/sodipodi-0.dtd"
   xmlns:inkscape="http://www.inkscape.org/namespaces/inkscape"
   width="256"
   height="256"
   viewBox="0 0 240 240.00001"
   id="svg2"
   version="1.1"
   inkscape:version="0.92.1 r"
   sodipodi:docname="logo-black.svg">
  <defs
     id="defs4" />
  <sodipodi:namedview
     id="base"
     pagecolor="#ffffff"
     bordercolor="#666666"
     borderopacity="1.0"
     inkscape:pageopacity="0.0"
     inkscape:pageshadow="2"
     inkscape:zoom="0.98994949"
     inkscape:cx="178.46995"
     inkscape:cy="113.45167"
     inkscape:document-units="px"
     inkscape:current-layer="g4263"
     showgrid="false"
     inkscape:snap-global="false"
     inkscape:window-width="1020"
     inkscape:window-height="561"
     inkscape:window-x="0"
     inkscape:window-y="18"
     inkscape:window-maximized="0"
     units="px"
     fit-margin-top="0"
     fit-margin-left="0"
     fit-margin-right="0"
     fit-margin-bottom="0" />
  <metadata
     id="metadata7">
    <rdf:RDF>
      <cc:Work
         rdf:about="">
        <dc:format>image/svg+xml</dc:format>
        <dc:type
           rdf:resource="http://purl.org/dc/dcmitype/StillImage" />
        <dc:title></dc:title>
      </cc:Work>
    </rdf:RDF>
  </metadata>
  <g
     inkscape:label="Layer 1"
     inkscape:groupmode="layer"
     id="layer1"
     transform="translate(-279.90175,-420.21956)">
    <g
       id="g4263">
      <g
         id="g3686"
         transform="matrix(0.89526548,0,0,0.89526548,-11.212902,63.476514)">
        <path
           sodipodi:nodetypes="cssccssssccsscsssssccssscssscsccsssscccsscccsccc"
           inkscape:connector-curvature="0"
           inkscape:export-ydpi="79.81382"
           inkscape:export-xdpi="79.81382"
           style="opacity:1;fill:#000000;fill-opacity:1;stroke:#000000;stroke-width:0.11709452;stroke-miterlimit:4;stroke-dasharray:none;stroke-opacity:1"
           d="m 520.62695,590.04102 c 0.0953,-6.07416 0.70828,-18.58321 0.5918,-31.9629 -0.11369,-13.05772 -0.94675,-26.94319 -1.58984,-36.48437 -0.38151,-5.66028 -1.57307,-6.04267 -4.39649,-6.03516 -2.82342,0.008 -4.66066,1.25838 -4.68945,6.17188 -0.0504,8.60421 0.89605,21.43369 0.74805,34.5625 -0.13089,11.61039 -1.32712,23.33898 -1.48047,34.28125 -0.21838,15.58279 -11.47455,20.36575 -17.24219,20.73024 -10.04624,0.63487 -20.0913,-12.53202 -21.05664,-34.07399 -1.10596,-24.67974 -3.85922,-55.26933 -7.84375,-77.93164 -0.24039,-1.36722 -3.29551,-32.43398 -1.33203,-42.79688 0.64336,-3.39556 3.36845,-9.00219 -3.78906,-9.59961 -6.5191,-0.54414 -4.36743,7.41117 -5.32422,11.5293 -2.20573,9.49367 0.0775,33.05609 1.52539,47.75391 2.09454,21.26158 8.28525,44.39928 5.61328,80.52929 -1.43137,19.3548 -8.95104,24.74208 -22.67144,24.94655 -10.76892,0.16048 -20.97804,-5.92655 -26.67377,-21.48316 -1.93578,-5.28716 -0.94595,-17.18737 -5.03174,-38.58448 -3.47796,-18.21397 -4.47557,-41.26337 -4.09376,-48.46094 0.22371,-4.21726 -0.14667,-6.09224 -4.18164,-5.88867 -4.03497,0.20358 -4.20852,0.62542 -4.21679,5.3418 -0.0185,10.52527 1.78815,31.06074 4.30273,49.74414 2.57288,19.11649 1.14337,36.49684 0.35891,37.74219 -3.78843,6.01421 -18.01528,10.84255 -25.178,19.91468 -9.99006,12.65318 -6.50591,29.8061 5.24506,40.61459 3.5424,2.87674 12.02408,9.74058 22.36724,8.74308 9.87888,-0.95273 21.45587,-9.74176 32.04932,-8.33619 14.08082,1.86828 22.58994,16.03079 36.11801,15.47117 16.07163,-0.66483 30.61051,-10.79421 37.05584,-10.34788 25.76735,4.56347 44.66475,-10.64623 45.41428,-24.2109 1.64417,-29.7555 -25.69561,-22.11809 -30.59863,-41.8798 z m -117.0957,18.24023 c 5.1278,-0.29706 6.56217,7.10509 8.25391,12.65234 4.12408,13.52295 0.46732,14.9713 -8.21289,13.57227 -11.24829,-1.81294 -17.35537,-5.1681 -16.11329,-11.95898 1.26269,-6.90356 5.52562,-8.22448 10.8086,-11.9961 2.10139,-1.50022 3.82789,-2.18635 5.26367,-2.26953 z m 114.68359,3.72461 c 4.92594,-0.22589 14.62313,5.31318 14.64258,11.42773 0.0115,3.60503 -0.12924,6.95497 -11.42969,11.07227 -4.63317,1.68809 -13.92773,1.82748 -13.92773,-4.28711 0,-6.11458 2.92658,-17.85576 10.71484,-18.21289 z m -47.61328,5.0918 c 6.4484,0.38679 11.8835,12.13573 13.6836,17.4082 3.30013,9.66608 -6.2352,14.28516 -13.92774,14.28516 -7.69254,0 -16.78515,-2.26045 -16.78515,-8.57227 -10e-6,-6.31183 7.30745,-20.35741 15,-22.85742 0.68586,-0.2229 1.36222,-0.30369 2.02929,-0.26367 z"
           id="path4248" />
        <path
           inkscape:export-ydpi="79.81382"
           inkscape:export-xdpi="79.81382"
           style="opacity:1;fill:#000000;fill-opacity:1;stroke:#000000;stroke-width:0.1;stroke-miterlimit:4;stroke-dasharray:none;stroke-opacity:1"
           d="m 425.52675,498.54606 c 0.84637,5.4724 -7.01336,6.06091 -20.70812,6.06091 -0.48563,0 -3.73186,-1.06843 1.75423,-1.59317 3.51626,-0.33633 14.51824,-1.34096 14.59237,-2.71118 0.14789,-2.73369 -21.23411,-5.12155 -22.65996,-5.16004 -4.0146,-0.10838 -16.48086,-0.0665 -16.39507,3.28729 0.0437,1.70839 5.03248,3.33269 8.15007,4.38687 3.1176,1.05419 1.66148,1.84278 1.42364,1.81032 -7.4534,-1.01731 -11.45875,-4.29192 -12.62417,-7.34369 -5.27669,-13.81756 8.27891,-40.48529 21.46574,-40.15357 13.69304,0.34445 22.22805,23.48532 25.00127,41.41626 z"
           id="path4209"
           inkscape:connector-curvature="0"
           sodipodi:nodetypes="sssssssssss" />
        <path
           inkscape:export-ydpi="79.81382"
           inkscape:export-xdpi="79.81382"
           style="opacity:1;fill:#000000;fill-opacity:1;stroke:#000000;stroke-width:0.14244199;stroke-miterlimit:4;stroke-dasharray:none;stroke-opacity:1"
           d="m 496.57469,455.5282 c -0.39638,6.78103 -4.68667,4.34013 -24.19376,4.34013 -5.74251,0 -10.11397,-3.54219 -0.0266,-3.78457 5.03003,-0.12086 17.64961,1.37291 17.7552,-1.33648 0.15186,-3.89666 -30.24629,-9.56808 -32.2773,-9.62291 -5.71847,-0.15438 -35.34495,-2.87262 -35.22275,1.90456 0.0623,2.43347 18.28003,6.76746 22.72079,8.26906 4.44077,1.50161 2.36665,2.62489 2.02786,2.57866 -10.61677,-1.44908 -29.45387,-3.3351 -29.8291,-12.31801 -0.13897,-3.32684 11.33018,-21.33152 22.85821,-36.45096 5.72227,-7.50499 14.69089,-10.71405 21.08023,-10.55333 6.69795,0.16849 15.6453,6.40023 20.48814,14.55822 5.04761,8.50294 14.99949,35.90812 14.6191,42.41563 z"
           id="path4209-1"
           inkscape:connector-curvature="0"
           sodipodi:nodetypes="sssssssssssss" />
        <path
           inkscape:export-ydpi="79.81382"
           inkscape:export-xdpi="79.81382"
           style="opacity:1;fill:#000000;fill-opacity:1;stroke:#000000;stroke-width:0.1275873;stroke-miterlimit:4;stroke-dasharray:none;stroke-opacity:1"
           d="m 548.26371,518.84668 c 0.13739,4.19673 -13.76959,4.51867 -22.13522,5.05438 -0.61834,0.0396 -6.72567,-2.07746 0.27388,-2.74696 4.4863,-0.42911 17.09486,-0.10375 17.01087,-2.74484 -0.11102,-3.49117 -20.48488,-4.74873 -28.55409,-4.97641 -5.12194,-0.14453 -30.49176,0.27234 -30.3823,3.47988 0.0744,2.17913 15.88508,3.00209 19.86273,4.34709 3.97766,1.34501 3.90556,3.42258 0.56638,3.02403 -9.53011,-1.13749 -25.47105,-3.59576 -25.57111,-7.76248 -0.15199,-6.32924 12.3886,-35.47992 19.38145,-42.94839 4.50982,-4.81655 11.21654,-7.76839 15.86324,-7.74675 6.08165,0.0283 16.46627,6.33051 21.03239,16.31168 6.88311,15.04589 12.49491,31.91748 12.65178,36.70877 z"
           id="path4209-6"
           inkscape:connector-curvature="0"
           sodipodi:nodetypes="sssssssssssss" />
      </g>
    </g>
  </g>
</svg>
